<svg version="1" xmlns="http://www.w3.org/2000/svg" width="346.667" height="346.667" viewBox="0 0 260.000000 260.000000"><path d="M90 6.8c-.4 123.4-.5 129.6-2.4 134.2-2.8 6.6-7.7 12.2-13.2 15-6.5 3.3-18.5 3.4-25.6.3-7.6-3.4-12.8-12.8-12.8-23.1v-2.7l-17.7.1H.5l-.1 4c-.2 11 6 27.1 13.3 34.9C24.5 181 41.2 187.3 61 187.3c11.2 0 15.3-.6 24-3.5 12.7-4.2 23.4-12.1 30.4-22.6 10.2-15.5 10.2-15.1 10.1-94.2V.5L107.8.3 90 .1v6.7zM153.5 115.7C146 138.7 139 160 138 163c-5.9 17.6-31 94.7-31 95.3 0 .4 8.4.6 18.6.5l18.7-.3 2.4-8.5c1.3-4.7 3.7-13.2 5.4-19l3-10.6 27.2.2c15 .1 27.5.2 27.8.3.4 0 3 8.7 6 19.1l5.2 19h37.5l-1.8-5.8c-1.6-5.2-20.1-62.8-32.2-100.2-2.7-8.5-6.7-20.9-8.8-27.5-4.2-13.3-13.1-40.8-15.2-47l-1.3-4-16.2-.3-16.1-.2-13.7 41.7zm39 39.8c4.7 17.1 8.8 31.8 9.1 32.7.5 1.7-.8 1.8-18.6 1.8s-19.1-.1-18.6-1.8c.3-.9 3.5-12.3 7.1-25.2 8.8-31.3 11.7-40.7 12.1-39.5.2.5 4.2 14.9 8.9 32z"/></svg>